<?xml version="1.0" encoding="utf-8"?>
<!-- Generator: Adobe Illustrator 24.1.2, SVG Export Plug-In . SVG Version: 6.00 Build 0)  -->
<svg version="1.1" id="Layer_1" xmlns="http://www.w3.org/2000/svg" xmlns:xlink="http://www.w3.org/1999/xlink" x="0px" y="0px"
	 viewBox="0 0 1280 1024" style="enable-background:new 0 0 1280 1024;" xml:space="preserve">
<style type="text/css">
	.st0{fill:#495E57;}
	.st1{font-family:'ArialMT';}
	.st2{font-size:116.0483px;}
	.st3{fill:#F4CE14;}
	.st4{fill:none;}
</style>
<g>
	<text transform="matrix(1 0 0 1 266.8936 720.123)" class="st0 st1 st2">T-SHIRT SHOP</text>
	
		<image style="overflow:visible;enable-background:new    ;" width="100" height="100" xlink:href="3370C4B4.png"  transform="matrix(2.437 0 0 2.437 561.4865 380.6667)">
	</image>
	<g>
		<path class="st0" d="M683.3,295.6c-120.7,0-218.6,97.8-218.6,218.6c0,37,9.2,71.9,25.5,102.5H536v0l0,0
			c-20.5-29.3-32.5-65-32.5-103.5c0-99.9,81-180.8,180.8-180.8s180.8,81,180.8,180.8c0,38.2-11.9,73.7-32.1,102.9c0,0.2,0,0.4,0,0.6
			h43.4c16.3-30.6,25.5-65.5,25.5-102.5C901.9,393.4,804,295.6,683.3,295.6z"/>
		<path class="st3" d="M682.4,316.8c-108.4,0-196.3,87.9-196.3,196.3c0,38,10.8,73.4,29.5,103.5c0,0,0,0,0,0l10.4,0l9.9,0
			c-20.5-29.3-32.5-65-32.5-103.5c0-99.9,81-180.8,180.8-180.8s180.8,81,180.8,180.8c0,38.2-11.9,73.7-32.1,102.9l0,0l16.6,0
			c18.5-29.9,29.1-65.1,29.1-102.9C878.7,404.7,790.8,316.8,682.4,316.8z"/>
		<path class="st4" d="M849.2,616.6c0.1-0.2,0.3-0.4,0.4-0.6"/>
	</g>
</g>
</svg>
